<svg xmlns="http://www.w3.org/2000/svg" xmlns:xlink="http://www.w3.org/1999/xlink" width="694.506" height="465.833" viewBox="0 0 694.506 465.833">
  <defs>
    <clipPath id="clip-path">
      <rect id="Retângulo_82" data-name="Retângulo 82" width="635.577" height="321.626" fill="none"/>
    </clipPath>
    <clipPath id="clip-path-3">
      <path id="Caminho_44" data-name="Caminho 44" d="M208.12,210.529a3.9,3.9,0,1,1,.1,0h-.1m.37-14.517a3.782,3.782,0,1,1,.107,0c-.036,0-.071,0-.107,0M82.2,194.2a3.869,3.869,0,1,1,.036,0H82.2M208.854,181.5a3.9,3.9,0,1,1,.1,0h-.1m-126.49-2.3a3.866,3.866,0,1,1,.036,0h-.036m126.86-12.214a3.9,3.9,0,1,1,.1,0h-.1m-126.7-2.78a3.862,3.862,0,1,1,.038,0h-.038m127.067-11.734a3.782,3.782,0,1,1,.1,0c-.033,0-.068,0-.1,0M82.674,149.228a3.866,3.866,0,1,1,.041,0h-.041M209.958,137.97a3.79,3.79,0,1,1,.107,0l-.107,0M82.834,134.237a3.863,3.863,0,1,1,.041,0h-.041m60.189,29.51c-3.457-.382-6.258-8.469-6.258-18.054s6.258-24.181,6.258-24.181,6.261,15.982,6.261,25.57c0,9.348-2.664,16.678-6.006,16.678a2.472,2.472,0,0,1-.255-.012M169.09,139.69c-8.5-5.515-19.063-19.427-19.063-19.427s16.541,3.665,25.04,9.179,14.055,12.282,12.406,15.109c-.488.844-1.56,1.24-3.049,1.24-3.517,0-9.354-2.226-15.334-6.1M98.57,134.7c-1.64-3.2,3.91-8.729,12.412-12.362s25.04-3.632,25.04-3.632-10.571,11.577-19.069,15.2a33.854,33.854,0,0,1-12.575,2.972c-2.913,0-5.05-.719-5.808-2.182m111.758-11.24a3.9,3.9,0,1,1,.1,0h-.1M82.991,119.25a3.866,3.866,0,1,1,.041,0h-.041m127.707-10.3a3.776,3.776,0,1,1,.1,0c-.036,0-.071,0-.1,0M83.145,104.257a3.631,3.631,0,1,1,.047,0l-.047,0m85.945-7.365c8.507-3.632,16.734-3.981,18.383-.784s-3.9,8.724-12.406,12.359-25.04,3.632-25.04,3.632,10.568-11.574,19.063-15.206m41.972-2.457a3.781,3.781,0,1,1,.1,0l-.1,0m-100.08,6.927C102.481,95.841,96.93,89.08,98.57,86.25s9.881-.654,18.383,4.864,19.069,19.43,19.069,19.43-16.544-3.668-25.04-9.182M83.3,89.27a3.865,3.865,0,1,1,.038,0H83.3m128.127-9.345a3.9,3.9,0,1,1,.11,0h-.11m-74.667,3.8c0-9.591,2.8-17.05,6.258-16.669s6.261,8.469,6.261,18.057-6.261,24.179-6.261,24.179-6.258-15.982-6.258-25.567m-53.3-9.44a3.869,3.869,0,1,1,.036,0h-.036m127.97-8.425a3.893,3.893,0,1,1,.115,0h-.115M83.619,59.289a3.862,3.862,0,1,1,.038,0h-.038m0-14.067a3.862,3.862,0,1,1,.038,0h-.038M72.3,210.192l66.174-35,1.738,1.3,2.46-1.3,70.41,52.694,4.372-172.438L136.978,43.461,74.167,31.893Z" transform="translate(-72.302 -31.893)" fill="none"/>
    </clipPath>
    <linearGradient id="linear-gradient" x1="-1.474" y1="1.159" x2="-1.454" y2="1.159" gradientUnits="objectBoundingBox">
      <stop offset="0" stop-color="#1f88fe"/>
      <stop offset="0.995" stop-color="#7c00d1"/>
      <stop offset="1" stop-color="#7c00d1"/>
    </linearGradient>
    <clipPath id="clip-path-5">
      <path id="Caminho_50" data-name="Caminho 50" d="M202.88,45.177l-78.272-3.011,92.81,192.57L292.191,37.1Z" transform="translate(-124.608 -37.099)" fill="none"/>
    </clipPath>
    <clipPath id="clip-path-6">
      <rect id="Retângulo_69" data-name="Retângulo 69" width="218.871" height="134.245" fill="none"/>
    </clipPath>
    <clipPath id="clip-path-7">
      <rect id="Retângulo_70" data-name="Retângulo 70" width="218.877" height="134.246" fill="none"/>
    </clipPath>
    <clipPath id="clip-path-8">
      <rect id="Retângulo_71" data-name="Retângulo 71" width="218.874" height="134.243" fill="none"/>
    </clipPath>
    <clipPath id="clip-path-9">
      <rect id="Retângulo_72" data-name="Retângulo 72" width="218.874" height="134.244" fill="none"/>
    </clipPath>
    <clipPath id="clip-path-11">
      <rect id="Retângulo_73" data-name="Retângulo 73" width="44.576" height="44.191" fill="none"/>
    </clipPath>
    <clipPath id="clip-path-12">
      <path id="Caminho_56" data-name="Caminho 56" d="M47.423,225.278,169.029,64.393,92.361,40.463,18.81,13.748Z" transform="translate(-18.81 -13.748)" fill="none"/>
    </clipPath>
    <clipPath id="clip-path-13">
      <rect id="Retângulo_75" data-name="Retângulo 75" width="44.576" height="44.194" fill="none"/>
    </clipPath>
    <clipPath id="clip-path-14">
      <rect id="Retângulo_76" data-name="Retângulo 76" width="44.573" height="44.194" fill="none"/>
    </clipPath>
    <clipPath id="clip-path-15">
      <rect id="Retângulo_77" data-name="Retângulo 77" width="44.575" height="44.191" fill="none"/>
    </clipPath>
    <clipPath id="clip-path-17">
      <rect id="Retângulo_78" data-name="Retângulo 78" width="150.216" height="77.045" fill="none"/>
    </clipPath>
    <clipPath id="clip-path-18">
      <rect id="Retângulo_79" data-name="Retângulo 79" width="148.214" height="70.506" fill="none"/>
    </clipPath>
    <clipPath id="clip-path-19">
      <rect id="Retângulo_80" data-name="Retângulo 80" width="167.583" height="66.736" fill="none"/>
    </clipPath>
  </defs>
  <g id="Grupo_202" data-name="Grupo 202" transform="translate(77.808) rotate(14)">
    <g id="Grupo_201" data-name="Grupo 201" clip-path="url(#clip-path)">
      <g id="Grupo_155" data-name="Grupo 155" transform="translate(0 0)">
        <g id="Grupo_154" data-name="Grupo 154" clip-path="url(#clip-path)">
          <path id="Caminho_43" data-name="Caminho 43" d="M618.144,73.708a17.85,17.85,0,0,0-5.237.793C556.469,91.688,493.5,100.408,425.74,100.408a916.43,916.43,0,0,1-108.59-6.773c-109-13.075-209.5-44.627-290.61-91.25A17.782,17.782,0,0,0,17.7,0,17.822,17.822,0,0,0,.612,13.335a17.333,17.333,0,0,0,8.223,19.7c10.76,6.184,21.926,12.14,33.956,18.116L70.247,254.123A14.174,14.174,0,0,0,95.6,260.769L196.938,126.7l.249-.334-1.554,148.425a14.177,14.177,0,0,0,20.8,12.678l62.459-33.041,67.346,50.391a14.168,14.168,0,0,0,22.654-10.985l3.523-138.917L448.9,313.607a14.171,14.171,0,0,0,12.764,8.019c.207,0,.414-.006.622-.015a14.165,14.165,0,0,0,12.634-9.144l70.392-186.049a606.523,606.523,0,0,0,77.737-18.027,17.736,17.736,0,0,0-4.905-34.684" transform="translate(0.001 0)" fill="#fff"/>
        </g>
      </g>
      <g id="Grupo_157" data-name="Grupo 157" transform="translate(214.025 94.408)">
        <g id="Grupo_156" data-name="Grupo 156" clip-path="url(#clip-path-3)">
          <rect id="Retângulo_67" data-name="Retângulo 67" width="145.154" height="195.992" transform="translate(0 0)" fill="url(#linear-gradient)"/>
        </g>
      </g>
      <g id="Grupo_159" data-name="Grupo 159" transform="translate(0 0)">
        <g id="Grupo_158" data-name="Grupo 158" clip-path="url(#clip-path)">
          <path id="Caminho_45" data-name="Caminho 45" d="M124.608,42.167l92.81,192.57L292.191,37.1l-89.314,8.078Z" transform="translate(244.251 72.72)" fill="#6cc7ff"/>
        </g>
      </g>
      <g id="Grupo_173" data-name="Grupo 173" transform="translate(368.859 109.819)">
        <g id="Grupo_172" data-name="Grupo 172" clip-path="url(#clip-path-5)">
          <g id="Grupo_162" data-name="Grupo 162" transform="translate(-25.117 -26.261)" style="mix-blend-mode: multiply;isolation: isolate">
            <g id="Grupo_161" data-name="Grupo 161">
              <g id="Grupo_160" data-name="Grupo 160" clip-path="url(#clip-path-6)">
                <path id="Caminho_46" data-name="Caminho 46" d="M332.932,37.96c-63.948,49.953-133.31,94.373-209.28,124.1-6.551,2.561-10.8-7.4-4.266-9.961,75.155-29.406,143.588-73.264,206.847-122.681,5.538-4.325,12.214,4.233,6.7,8.546" transform="translate(-116.124 -28.229)" fill="#1f88fe"/>
              </g>
            </g>
          </g>
          <g id="Grupo_165" data-name="Grupo 165" transform="translate(-39.924 -67.12)" style="mix-blend-mode: multiply;isolation: isolate">
            <g id="Grupo_164" data-name="Grupo 164" transform="translate(0 0)">
              <g id="Grupo_163" data-name="Grupo 163" clip-path="url(#clip-path-7)">
                <path id="Caminho_47" data-name="Caminho 47" d="M327.931,24.159c-63.945,49.95-133.31,94.373-209.277,124.1-6.554,2.561-10.81-7.4-4.266-9.964,75.152-29.4,143.585-73.261,206.847-122.678,5.538-4.325,12.214,4.23,6.7,8.546" transform="translate(-111.121 -14.424)" fill="#1f88fe"/>
              </g>
            </g>
          </g>
          <g id="Grupo_168" data-name="Grupo 168" transform="translate(0.663 13.368)" style="mix-blend-mode: multiply;isolation: isolate">
            <g id="Grupo_167" data-name="Grupo 167">
              <g id="Grupo_166" data-name="Grupo 166" clip-path="url(#clip-path-8)">
                <path id="Caminho_48" data-name="Caminho 48" d="M341.639,51.345c-63.945,49.953-133.308,94.373-209.277,124.1-6.551,2.564-10.808-7.4-4.263-9.961,75.149-29.406,143.585-73.264,206.844-122.675,5.538-4.331,12.214,4.227,6.7,8.54" transform="translate(-124.832 -41.616)" fill="#1f88fe"/>
              </g>
            </g>
          </g>
          <g id="Grupo_171" data-name="Grupo 171" transform="translate(13.196 64.794)" style="mix-blend-mode: multiply;isolation: isolate">
            <g id="Grupo_170" data-name="Grupo 170">
              <g id="Grupo_169" data-name="Grupo 169" clip-path="url(#clip-path-9)">
                <path id="Caminho_49" data-name="Caminho 49" d="M345.874,68.719c-63.945,49.953-133.307,94.373-209.277,124.1-6.554,2.564-10.808-7.4-4.266-9.961,75.155-29.406,143.585-73.264,206.844-122.678,5.538-4.328,12.217,4.23,6.7,8.543" transform="translate(-129.067 -58.988)" fill="#1f88fe"/>
              </g>
            </g>
          </g>
        </g>
      </g>
      <g id="Grupo_178" data-name="Grupo 178" transform="translate(0 0)">
        <g id="Grupo_177" data-name="Grupo 177" clip-path="url(#clip-path)">
          <path id="Caminho_51" data-name="Caminho 51" d="M18.81,13.748,47.423,225.277l121.6-160.884L92.361,40.463Z" transform="translate(36.871 26.948)" fill="#1f88fe"/>
          <g id="Grupo_176" data-name="Grupo 176" transform="translate(80.715 149.709)" opacity="0.5" style="mix-blend-mode: multiply;isolation: isolate">
            <g id="Grupo_175" data-name="Grupo 175">
              <g id="Grupo_174" data-name="Grupo 174" clip-path="url(#clip-path-11)">
                <path id="Caminho_52" data-name="Caminho 52" d="M27.464,75.572a22.282,22.282,0,1,0,19.164-24.8,22.246,22.246,0,0,0-19.164,24.8" transform="translate(-27.267 -50.575)" fill="#750729"/>
              </g>
            </g>
          </g>
        </g>
      </g>
      <g id="Grupo_189" data-name="Grupo 189" transform="translate(55.68 40.696)">
        <g id="Grupo_188" data-name="Grupo 188" clip-path="url(#clip-path-12)">
          <g id="Grupo_181" data-name="Grupo 181" transform="translate(-6.205 38.819)" opacity="0.5" style="mix-blend-mode: multiply;isolation: isolate">
            <g id="Grupo_180" data-name="Grupo 180">
              <g id="Grupo_179" data-name="Grupo 179" clip-path="url(#clip-path-13)">
                <path id="Caminho_53" data-name="Caminho 53" d="M16.91,51.861A22.282,22.282,0,1,0,36.074,27.055,22.257,22.257,0,0,0,16.91,51.861" transform="translate(-16.714 -26.863)" fill="#750729"/>
              </g>
            </g>
          </g>
          <g id="Grupo_184" data-name="Grupo 184" transform="translate(90.846 69.849)" opacity="0.5" style="mix-blend-mode: multiply;isolation: isolate">
            <g id="Grupo_183" data-name="Grupo 183">
              <g id="Grupo_182" data-name="Grupo 182" clip-path="url(#clip-path-14)">
                <path id="Caminho_54" data-name="Caminho 54" d="M49.7,62.344A22.281,22.281,0,1,0,68.857,37.538,22.25,22.25,0,0,0,49.7,62.344" transform="translate(-49.5 -37.344)" fill="#750729"/>
              </g>
            </g>
          </g>
          <g id="Grupo_187" data-name="Grupo 187" transform="translate(55.657 12.778)" opacity="0.5" style="mix-blend-mode: multiply;isolation: isolate">
            <g id="Grupo_186" data-name="Grupo 186">
              <g id="Grupo_185" data-name="Grupo 185" clip-path="url(#clip-path-15)">
                <path id="Caminho_55" data-name="Caminho 55" d="M37.808,43.062a22.282,22.282,0,1,0,19.164-24.8,22.243,22.243,0,0,0-19.164,24.8" transform="translate(-37.613 -18.066)" fill="#750729"/>
              </g>
            </g>
          </g>
        </g>
      </g>
      <g id="Grupo_200" data-name="Grupo 200" transform="translate(0 0)">
        <g id="Grupo_199" data-name="Grupo 199" clip-path="url(#clip-path)">
          <path id="Caminho_57" data-name="Caminho 57" d="M139.774,43.971l-67-12.338-1.9,181.3L141.268,175.7,215.8,231.47l4.449-175.516ZM80.8,194.7a3.749,3.749,0,1,1,3.878-3.7,3.8,3.8,0,0,1-3.878,3.7m.157-14.987a3.749,3.749,0,1,1,3.881-3.709,3.791,3.791,0,0,1-3.881,3.709m.157-14.99A3.749,3.749,0,1,1,85,161.021a3.8,3.8,0,0,1-3.881,3.706m.157-14.99a3.747,3.747,0,1,1,3.878-3.706,3.8,3.8,0,0,1-3.878,3.706m.16-14.987a3.75,3.75,0,1,1,3.881-3.709,3.8,3.8,0,0,1-3.881,3.709m.154-14.99a3.749,3.749,0,1,1,3.881-3.706,3.8,3.8,0,0,1-3.881,3.706m.154-14.99a3.749,3.749,0,1,1,3.884-3.706,3.794,3.794,0,0,1-3.884,3.706m.163-14.99a3.749,3.749,0,1,1,3.878-3.709,3.8,3.8,0,0,1-3.878,3.709m.157-14.987a3.75,3.75,0,1,1,3.878-3.706,3.8,3.8,0,0,1-3.878,3.706M82.216,59.8A3.747,3.747,0,1,1,86.1,56.093,3.795,3.795,0,0,1,82.216,59.8m0-14.067A3.747,3.747,0,1,1,86.1,42.026a3.795,3.795,0,0,1-3.881,3.706m33.337,88.686c-8.5,3.629-16.731,3.984-18.383.79s3.9-8.729,12.406-12.362,25.04-3.629,25.04-3.629-10.568,11.574-19.063,15.2m-5.977-32.547c-8.5-5.518-14.052-12.279-12.406-15.112s9.878-.654,18.383,4.864,19.063,19.433,19.063,19.433-16.538-3.671-25.04-9.185m32.047,62.382c-3.454-.376-6.261-8.463-6.261-18.048s6.261-24.184,6.261-24.184,6.261,15.982,6.261,25.57-2.8,17.05-6.261,16.663m0-54.455s-6.261-15.982-6.261-25.567,2.806-17.05,6.261-16.669,6.261,8.472,6.261,18.057-6.261,24.179-6.261,24.179m44.45,35.261c-1.649,2.833-9.878.654-18.38-4.864s-19.069-19.425-19.069-19.425,16.541,3.665,25.04,9.179,14.055,12.282,12.409,15.109m-12.409-36.081c-8.5,3.626-25.04,3.629-25.04,3.629s10.568-11.574,19.069-15.206,16.731-3.981,18.38-.784-3.9,8.724-12.409,12.362m33.056,102.06a3.635,3.635,0,1,1,3.928-3.537,3.746,3.746,0,0,1-3.928,3.537m.364-14.514a3.633,3.633,0,1,1,3.934-3.531,3.741,3.741,0,0,1-3.934,3.531m.373-14.511a3.636,3.636,0,1,1,3.928-3.531,3.741,3.741,0,0,1-3.928,3.531m.364-14.511a3.635,3.635,0,1,1,3.937-3.531,3.739,3.739,0,0,1-3.937,3.531m.37-14.511a3.636,3.636,0,1,1,3.931-3.534,3.739,3.739,0,0,1-3.931,3.534m.37-14.514a3.635,3.635,0,1,1,3.931-3.531,3.739,3.739,0,0,1-3.931,3.531m.364-14.511a3.635,3.635,0,1,1,3.934-3.531,3.737,3.737,0,0,1-3.934,3.531m.37-14.511a3.636,3.636,0,1,1,3.931-3.534,3.741,3.741,0,0,1-3.931,3.534m.367-14.514a3.633,3.633,0,1,1,3.934-3.531,3.736,3.736,0,0,1-3.934,3.531m.367-14.511a3.635,3.635,0,1,1,3.934-3.531,3.735,3.735,0,0,1-3.934,3.531m0-14.067a3.635,3.635,0,1,1,3.934-3.531,3.733,3.733,0,0,1-3.934,3.531" transform="translate(138.928 62.005)" fill="#d436ff"/>
          <path id="Caminho_58" data-name="Caminho 58" d="M139.774,43.971l-67-12.338-1.9,181.3L141.268,175.7,215.8,231.47l4.449-175.516ZM80.8,194.7a3.749,3.749,0,1,1,3.878-3.7,3.8,3.8,0,0,1-3.878,3.7m.157-14.987a3.749,3.749,0,1,1,3.881-3.709,3.791,3.791,0,0,1-3.881,3.709m.157-14.99A3.749,3.749,0,1,1,85,161.021a3.8,3.8,0,0,1-3.881,3.706m.157-14.99a3.747,3.747,0,1,1,3.878-3.706,3.8,3.8,0,0,1-3.878,3.706m.16-14.987a3.75,3.75,0,1,1,3.881-3.709,3.8,3.8,0,0,1-3.881,3.709m.154-14.99a3.749,3.749,0,1,1,3.881-3.706,3.8,3.8,0,0,1-3.881,3.706m.154-14.99a3.749,3.749,0,1,1,3.884-3.706,3.794,3.794,0,0,1-3.884,3.706m.163-14.99a3.749,3.749,0,1,1,3.878-3.709,3.8,3.8,0,0,1-3.878,3.709m.157-14.987a3.75,3.75,0,1,1,3.878-3.706,3.8,3.8,0,0,1-3.878,3.706M82.216,59.8A3.747,3.747,0,1,1,86.1,56.093,3.795,3.795,0,0,1,82.216,59.8m0-14.067A3.747,3.747,0,1,1,86.1,42.026a3.795,3.795,0,0,1-3.881,3.706m33.337,88.686c-8.5,3.629-16.731,3.984-18.383.79s3.9-8.729,12.406-12.362,25.04-3.629,25.04-3.629-10.568,11.574-19.063,15.2m-5.977-32.547c-8.5-5.518-14.052-12.279-12.406-15.112s9.878-.654,18.383,4.864,19.063,19.433,19.063,19.433-16.538-3.671-25.04-9.185m32.047,62.382c-3.454-.376-6.261-8.463-6.261-18.048s6.261-24.184,6.261-24.184,6.261,15.982,6.261,25.57-2.8,17.05-6.261,16.663m0-54.455s-6.261-15.982-6.261-25.567,2.806-17.05,6.261-16.669,6.261,8.472,6.261,18.057-6.261,24.179-6.261,24.179m44.45,35.261c-1.649,2.833-9.878.654-18.38-4.864s-19.069-19.425-19.069-19.425,16.541,3.665,25.04,9.179,14.055,12.282,12.409,15.109m-12.409-36.081c-8.5,3.626-25.04,3.629-25.04,3.629s10.568-11.574,19.069-15.206,16.731-3.981,18.38-.784-3.9,8.724-12.409,12.362m33.056,102.06a3.635,3.635,0,1,1,3.928-3.537,3.746,3.746,0,0,1-3.928,3.537m.364-14.514a3.633,3.633,0,1,1,3.934-3.531,3.741,3.741,0,0,1-3.934,3.531m.373-14.511a3.636,3.636,0,1,1,3.928-3.531,3.741,3.741,0,0,1-3.928,3.531m.364-14.511a3.635,3.635,0,1,1,3.937-3.531,3.739,3.739,0,0,1-3.937,3.531m.37-14.511a3.636,3.636,0,1,1,3.931-3.534,3.739,3.739,0,0,1-3.931,3.534m.37-14.514a3.635,3.635,0,1,1,3.931-3.531,3.739,3.739,0,0,1-3.931,3.531m.364-14.511a3.635,3.635,0,1,1,3.934-3.531,3.737,3.737,0,0,1-3.934,3.531m.37-14.511a3.636,3.636,0,1,1,3.931-3.534,3.741,3.741,0,0,1-3.931,3.534m.367-14.514a3.633,3.633,0,1,1,3.934-3.531,3.736,3.736,0,0,1-3.934,3.531m.367-14.511a3.635,3.635,0,1,1,3.934-3.531,3.735,3.735,0,0,1-3.934,3.531m0-14.067a3.635,3.635,0,1,1,3.934-3.531,3.733,3.733,0,0,1-3.934,3.531" transform="translate(138.928 62.005)" fill="#0dffbf"/>
          <g id="Grupo_192" data-name="Grupo 192" transform="translate(55.681 40.695)" opacity="0.3" style="mix-blend-mode: multiply;isolation: isolate">
            <g id="Grupo_191" data-name="Grupo 191">
              <g id="Grupo_190" data-name="Grupo 190" clip-path="url(#clip-path-17)">
                <path id="Caminho_59" data-name="Caminho 59" d="M98.442,61.738a96.8,96.8,0,0,1,57.93,19.395l12.655-16.74L92.359,40.463,18.811,13.748l10.42,77.044C47.489,72.75,71.774,61.738,98.442,61.738" transform="translate(-18.809 -13.747)" fill="#36004f"/>
              </g>
            </g>
          </g>
          <g id="Grupo_195" data-name="Grupo 195" transform="translate(210.965 93.637)" opacity="0.3" style="mix-blend-mode: multiply;isolation: isolate">
            <g id="Grupo_194" data-name="Grupo 194">
              <g id="Grupo_193" data-name="Grupo 193" clip-path="url(#clip-path-18)">
                <path id="Caminho_60" data-name="Caminho 60" d="M170.9,59.639a142.76,142.76,0,0,1,34.838,4.307,3.468,3.468,0,0,1-.228-1.3,3.848,3.848,0,0,1,7.682.192,3.512,3.512,0,0,1-1.522,2.738c2.534.758,5.038,1.575,7.5,2.469l.311-12.089L139.006,43.971l-67-12.338-.737,70.5c23.391-25.9,59.316-42.5,99.636-42.5M81.532,38.24a3.748,3.748,0,1,1-3.887,3.706,3.792,3.792,0,0,1,3.887-3.706m0,14.067a3.748,3.748,0,1,1-3.887,3.706,3.792,3.792,0,0,1,3.887-3.706m-.16,14.987A3.75,3.75,0,1,1,77.491,71a3.794,3.794,0,0,1,3.881-3.709m-.157,14.99a3.749,3.749,0,1,1-3.881,3.709,3.794,3.794,0,0,1,3.881-3.709" transform="translate(-71.267 -31.632)" fill="#36004f"/>
              </g>
            </g>
          </g>
          <g id="Grupo_198" data-name="Grupo 198" transform="translate(368.859 109.82)" opacity="0.3" style="mix-blend-mode: multiply;isolation: isolate">
            <g id="Grupo_197" data-name="Grupo 197">
              <g id="Grupo_196" data-name="Grupo 196" clip-path="url(#clip-path-19)">
                <path id="Caminho_61" data-name="Caminho 61" d="M245.581,56.166A107.7,107.7,0,0,1,282.5,62.711L292.191,37.1l-89.314,8.075-78.269-3.01,29.72,61.672c21.665-29.107,54.493-47.67,91.253-47.67" transform="translate(-124.608 -37.098)" fill="#36004f"/>
              </g>
            </g>
          </g>
          <path id="Caminho_62" data-name="Caminho 62" d="M6.51,11.364C94.962,62.2,196.279,91.14,297.256,104.233c103.54,13.421,211.811,11.817,312.278-18.785,4.354-1.326,2.5-8.114-1.883-6.779-97.093,29.578-201.361,31.677-301.577,19.655C203.4,86.01,99.908,56.917,10.092,5.289,6.125,3.013,2.558,9.084,6.51,11.364" transform="translate(9.389 9.384)" fill="#b7b7b7"/>
        </g>
      </g>
    </g>
  </g>
</svg>
